<svg width="111" height="110" viewBox="0 0 111 110" fill="none" xmlns="http://www.w3.org/2000/svg">
<circle cx="109.5" cy="109.5" r="109.5" fill="#E3EEFF"/>
<path d="M58.9375 64.7891L52.6562 63.3125L54.7188 45.875H74.6641V52.0156H61.1641L60.3906 58.7891C60.7656 58.5703 61.3984 58.3125 62.2891 58.0156C63.1953 57.7031 64.1953 57.5469 65.2891 57.5469C66.9766 57.5469 68.4688 57.8047 69.7656 58.3203C71.0781 58.8203 72.1875 59.5625 73.0938 60.5469C74 61.5156 74.6797 62.7109 75.1328 64.1328C75.6016 65.5547 75.8359 67.1797 75.8359 69.0078C75.8359 70.4766 75.5938 71.8984 75.1094 73.2734C74.6406 74.6328 73.9141 75.8594 72.9297 76.9531C71.9609 78.0312 70.7344 78.8906 69.25 79.5312C67.7656 80.1562 66.0078 80.4688 63.9766 80.4688C62.4609 80.4688 60.9844 80.2344 59.5469 79.7656C58.1094 79.2969 56.8125 78.625 55.6562 77.75C54.5156 76.8594 53.6094 75.7891 52.9375 74.5391C52.2812 73.2734 51.9609 71.8594 51.9766 70.2969H59.9219C59.9688 71.125 60.1641 71.8438 60.5078 72.4531C60.8516 73.0625 61.3125 73.5391 61.8906 73.8828C62.4844 74.2109 63.1641 74.375 63.9297 74.375C64.7109 74.375 65.3594 74.2188 65.875 73.9062C66.3906 73.5938 66.7969 73.1641 67.0938 72.6172C67.3906 72.0703 67.6016 71.4453 67.7266 70.7422C67.8516 70.0234 67.9141 69.2656 67.9141 68.4688C67.9141 67.625 67.8203 66.8672 67.6328 66.1953C67.4609 65.5234 67.1797 64.9531 66.7891 64.4844C66.3984 64 65.8906 63.6328 65.2656 63.3828C64.6562 63.1328 63.9219 63.0078 63.0625 63.0078C61.9219 63.0078 61.0234 63.2031 60.3672 63.5938C59.7109 63.9844 59.2344 64.3828 58.9375 64.7891Z" fill="white"/>
</svg>
