<svg width="110" height="110" viewBox="0 0 110 110" fill="none" xmlns="http://www.w3.org/2000/svg">
<circle cx="109.5" cy="109.5" r="109.5" fill="#E3EEFF"/>
<path d="M69.9766 45.3828H71.2422V51.5938H70.8203C69.3047 51.5938 67.8828 51.8047 66.5547 52.2266C65.2422 52.6484 64.0859 53.2891 63.0859 54.1484C62.1016 54.9922 61.3281 56.0625 60.7656 57.3594C60.2188 58.6562 59.9453 60.1797 59.9453 61.9297V67.9062C59.9453 69 60.0391 69.9531 60.2266 70.7656C60.4141 71.5781 60.6953 72.25 61.0703 72.7812C61.4453 73.3125 61.9062 73.7109 62.4531 73.9766C63.0156 74.2422 63.6641 74.375 64.3984 74.375C65.0078 74.375 65.5703 74.2344 66.0859 73.9531C66.6016 73.6719 67.0469 73.2734 67.4219 72.7578C67.8125 72.2422 68.1094 71.6406 68.3125 70.9531C68.5156 70.2656 68.6172 69.5156 68.6172 68.7031C68.6172 67.8281 68.5078 67.0391 68.2891 66.3359C68.0703 65.6328 67.7578 65.0391 67.3516 64.5547C66.9609 64.0547 66.4844 63.6797 65.9219 63.4297C65.375 63.1641 64.7734 63.0312 64.1172 63.0312C63.1172 63.0312 62.2656 63.2578 61.5625 63.7109C60.875 64.1484 60.3516 64.7109 59.9922 65.3984C59.6484 66.0859 59.4766 66.7812 59.4766 67.4844L57.5781 65.5625C57.5469 64.625 57.7266 63.6562 58.1172 62.6562C58.5078 61.6562 59.0938 60.7266 59.875 59.8672C60.6562 59.0078 61.6328 58.3125 62.8047 57.7812C63.9766 57.25 65.3359 56.9844 66.8828 56.9844C68.4453 56.9844 69.8203 57.2812 71.0078 57.875C72.2109 58.4688 73.2188 59.2969 74.0312 60.3594C74.8594 61.4219 75.4844 62.6641 75.9062 64.0859C76.3281 65.5078 76.5391 67.0469 76.5391 68.7031C76.5391 70.375 76.2422 71.9297 75.6484 73.3672C75.0703 74.7891 74.25 76.0312 73.1875 77.0938C72.125 78.1562 70.8672 78.9844 69.4141 79.5781C67.9609 80.1719 66.3594 80.4688 64.6094 80.4688C62.8125 80.4688 61.1484 80.1641 59.6172 79.5547C58.1016 78.9297 56.7734 78.0312 55.6328 76.8594C54.5078 75.6719 53.625 74.2266 52.9844 72.5234C52.3594 70.8203 52.0469 68.8906 52.0469 66.7344V63.8516C52.0469 60.9297 52.5234 58.3281 53.4766 56.0469C54.4453 53.7656 55.7578 51.8359 57.4141 50.2578C59.0859 48.6641 61 47.4531 63.1562 46.625C65.3125 45.7969 67.5859 45.3828 69.9766 45.3828Z" fill="white"/>
</svg>
